# xmcd
#
# Track frame offsets:
#	150
#	29021
#	57721
#	87141
#	130265
#	150081
#	174286
#	196515
#	251844
#	308074
#
# Disc length: 4391 seconds
#
# Revision: 0
# Processed by: cddbd v1.5.2PL0 Copyright (c) Steve Scherf et al.
# Submitted via: EZCDAudioConverter 6.0.9.1
#
DISCID=7811250a
DTITLE=Layla Zoe - Songs From The Road 
DYEAR=2017
DGENRE=Blues
TTITLE0=Backstage Queen
TTITLE1=Run Away
TTITLE2=A Good Man
TTITLE3=\nSweet Angel
TTITLE4=Pull Yourself Together
TTITLE5=Why Do We Hurt The Ones We Love
TTITLE6=Why You So Afraid
TTITLE7=Never Met A Man Like You
TTITLE8=Highway Of Tears
TTITLE9=The Wind Cries Mary
EXTD=
EXTT0=
EXTT1=
EXTT2=
EXTT3=
EXTT4=
EXTT5=
EXTT6=
EXTT7=
EXTT8=
EXTT9=
PLAYORDER=
